<svg aria-hidden="true" style="position: absolute; width: 0; height: 0; overflow: hidden;" version="1.1" xmlns="http://www.w3.org/2000/svg" xmlns:xlink="http://www.w3.org/1999/xlink">
<defs>
<symbol id="icon-aircraft" viewBox="0 0 20 20">
<path d="M12.496 17.414c-0.394-1.096-1.805-4.775-2.39-6.297-1.103 0.737-2.334 1.435-3.512 1.928-0.366 1.28-1.094 3.709-1.446 4.033-0.604 0.557-0.832 0.485-0.925-0.279s-0.485-3.236-0.485-3.236-2.162-1.219-2.84-1.568-0.667-0.591 0.057-0.974c0.422-0.223 2.927-0.085 4.242 0.005 0.861-0.951 1.931-1.882 2.993-2.679-1.215-1.076-4.15-3.675-5.034-4.424-0.776-0.658 0.079-0.797 0.079-0.797 0.39-0.070 1.222-0.132 1.628-0.009 2.524 0.763 6.442 2.068 7.363 2.376 0.353-0.249 0.737-0.52 1.162-0.821 4.702-3.33 5.887-2.593 6.111-2.27s0.503 1.701-4.199 5.032c-0.425 0.301-0.808 0.573-1.16 0.823-0.029 0.98-0.157 5.151-0.311 7.811-0.025 0.428-0.367 1.198-0.565 1.544-0.001 0-0.423 0.765-0.768-0.198z"></path>
</symbol>
<symbol id="icon-local_hospital" viewBox="0 0 24 24">
<path d="M18 14.016v-4.031h-3.984v-3.984h-4.031v3.984h-3.984v4.031h3.984v3.984h4.031v-3.984h3.984zM18.984 3q0.797 0 1.406 0.609t0.609 1.406v13.969q0 0.797-0.609 1.406t-1.406 0.609h-13.969q-0.797 0-1.406-0.609t-0.609-1.406v-13.969q0-0.797 0.609-1.406t1.406-0.609h13.969z"></path>
</symbol>
<symbol id="icon-stethoscope" viewBox="0 0 22 28">
<path d="M20 11c0-0.547-0.453-1-1-1s-1 0.453-1 1 0.453 1 1 1 1-0.453 1-1zM22 11c0 1.313-0.828 2.406-2 2.828v6.172c0 3.313-3.141 6-7 6s-7-2.688-7-6v-2.063c-3.391-0.422-6-2.922-6-5.938v-8c0-0.547 0.453-1 1-1 0.094 0 0.172 0.016 0.25 0.031 0.344-0.609 1-1.031 1.75-1.031 1.109 0 2 0.891 2 2s-0.891 2-2 2c-0.359 0-0.703-0.109-1-0.281v6.281c0 2.203 2.25 4 5 4s5-1.797 5-4v-6.281c-0.297 0.172-0.641 0.281-1 0.281-1.109 0-2-0.891-2-2s0.891-2 2-2c0.75 0 1.406 0.422 1.75 1.031 0.078-0.016 0.156-0.031 0.25-0.031 0.547 0 1 0.453 1 1v8c0 3.016-2.609 5.516-6 5.938v2.063c0 2.203 2.25 4 5 4s5-1.797 5-4v-6.172c-1.172-0.422-2-1.516-2-2.828 0-1.656 1.344-3 3-3s3 1.344 3 3z"></path>
</symbol>
</defs>
</svg>
